<svg xmlns="http://www.w3.org/2000/svg" xml:space="preserve" fill-rule="evenodd" stroke-linejoin="round" stroke-miterlimit="2" clip-rule="evenodd" viewBox="0 0 620 365">
  <path fill="none" d="M0 0h619v364H0z"/>
  <clipPath id="a">
    <path d="M0 0h619v364H0z"/>
  </clipPath>
  <g fill="white" fill-rule="nonzero" clip-path="url(#a)">
    <path d="M97 232h1l1-2c-1 1-3 1-2 2m409 0h1l1-1-2 1"/>
    <path d="M585 221h-2l5-2c0 2-2 1-3 2m-40-55c-15 18-33 38-54 49h-2l3-7a214 214 0 0 1 67-71c-1 11-9 19-14 29m-172 2v-1h1l-1 1m-13 37-2 2c-6 14-9 30-18 43-5 11-9 21-19 29-1-14 6-27 9-41 6-26 14-51 27-75 2-2 4-7 8-5l5 6c-2 14-5 28-10 41m-22 95c-1-1 0-1 1-1l-1 1M160 100c1-8 4-16 8-23l-2-1c3-1 2-4 4-5-1 10-5 20-10 29Zm-27 59c-2-2 2-3 2-6l3-1c-1 3-2 6-5 7m-2-9 3-1-3 7v-6m-3 10v-1 1m-52-35c-2 11-10 20-15 30-7 10-16 22-27 30h-2c-1-19 8-35 14-52 6-8 7-20 17-26 3-6 8-12 14-15 3 1 5-4 8-2-2 12-3 24-9 35M50 318l-1 2c0-3 3-8 5-11l-4 9m567-117c-4-2 0-5-1-8h-1c-1 0-2 0-1-1 3-5 1-12 3-17-4 1-5 6-9 6-7-1-6 7-11 10-5 0-5 6-10 7-2 5-6 8-11 8-1 0-3-1-3-3 1-14 5-27 10-39-1-5 2-10 4-15l23-53c0-2-1-6 1-8 1-3-1-6-1-9-2-7-7 2-10 0 1-1 3-2 2-3-3-3-3 2-5 2l-4 2c-5-1-8 2-12 3-49 30-89 74-133 112h-2c2-16 7-31 13-45 8-17 12-36 23-51 2-3-2-6 2-9-2-1-4 2-6 2-1-3 2-7-2-10-3 2-3 5-6 6v-3l-3 1c-1 3-5 4-7 6-4-1-5 5-9 5-6 9-10 20-15 30-3 4-3 13-10 14l-17 10h-7c-5 0-1-4-5-5 1-9-1-18-3-27l15-21 10-20c-1-6 2-10 2-15l-2 1c-1-1-2-3-1-5 0-4-6-3-7-7 3-3-2-8 1-11l-1-1-6 4 1 2-3 1-16 15-1-1c2-2-2-1-1-3-4 2-4 7-8 10-7 9-14 18-19 28-1 8-6 16-8 24-4 19-24 32-35 47-4 3-9 7-14 8 4-17 11-33 16-49-2-6-1-12 2-17-2-3-1-7-1-10-3-1-2-4-2-6-6 1-9 6-12 10-4 7-6 14-11 21-6 4-1 10-7 14 3 2-1 5-2 6v-7l-2 1 1 3c-3 4-5 9-10 10-6 6-10 14-17 20-4 8-11 14-16 21-5-3 1-7-1-10 3-1 3-5 5-6 3-9 9-17 14-25 10-16 27-29 39-43 3-4 1-9 3-12v1l-1-2 3-3c1-5 7-9 11-12-3-4-6 3-9 3-2-2 3-3 1-5-33 25-63 58-85 92-4 0 1-3-1-3l-3 1-9 3c-1 1-2 0-3-1 2-1 1-3 2-4-2 0-1-1-2-2l-1 1c-2-1 0-4 0-6 4-7 3-15 7-21 11-15 16-32 26-48-1-1-1-4-4-4l1-5-5 1c-1-4-5-2-5-6l1-1v-1l-5-2-2-1v1c2 1 0 5 0 6-3-1-4 5-7 3l-27 19-1-1c0-1 3-1 1-2-3 2-7 4-8 8-7-1 1-7-1-10l-6 9c-1 2-3 7-6 7 6-14 11-28 14-43-1-8 3-19-3-27-2 2-3-1-6 0l-3 2 4-1c1 1 3 2 2 3-2 3-5 8-9 7-20 21-28 47-33 74-1 6 0 13 3 19 3 3-3 5-3 9 4 6-6 3-4 7-8-1-5 9-13 9 3 5-6 3-3 8-2 1-2 4-5 3v3c-6 1-6 8-11 11l-2-1c7-21 8-45 13-67 8-13 14-29 15-45-2-1 0 2-2 2l-2-6c-1 0-2 2-4 1-2 2-2-4-5-5 1-3-2-2-2-4-3-2-5-6-6-8-5 4 1 12-5 16-6-1-1-9-6-11-17 1-32 8-44 21-18 19-30 40-36 63-5 14-8 31-4 47 4 10 15 16 25 17 3 3 6-2 9 0 5 4 8-5 13-5 4-2 8-7 12-8v6c-6 26-13 51-25 74l-4 3-26 37c0 3 3 4 6 5-2 3 4 1 2 4l2 1c3 2-2 3 0 6l1-1c3-3 4 2 6 2 0-6 5 0 6-5 3-2 3 1 3 2l3-3 1 2c6-10 17-14 20-25l3-14c6-11 10-22 12-35-2 3-2 8-6 9l-1-3c9-16 20-32 32-47h2l-2 5c2-1 3-3 5-2l-2 4c3 1 3-3 5-4l1 2c12-14 23-28 32-43h-2c2-6 7-11 9-17l-12 15h-2c4-8 11-15 14-22l-9 10 13-20c1 3 3 0 5 2 5-2 13-3 15-8 5-2 9-6 14-5-3 15-12 30-10 48 1 6 6 2 8 5 2-4 5 1 7 1 5-2 6 3 11 1 1 1-1 4 2 3 0-1 3-2 1-3l1-1c2 0 0-3 3-3 1-5 8-9 11-14h2c-6 12-15 22-12 36 5 0 5 7 9 7l2 2c3-2 4 4 8 0 3 1 3 4 5 6 3 2 5-3 8-1-1-2 1-2 2-3 3 1 6-2 7-3h-2c3-2 7-7 11-6v-2c1-2 3-4 6-4 3-3 6-8 10-8v1l10 6c7-1 10 6 16 6 3 0 6-4 8-1-7 27-18 56-12 86 1 9 11 8 17 11 8 4 5 14 6 21-3 9 3 20-3 28 0 3 3 6 5 8 3 1 5 0 7-2 4-16-1-33 2-50l6-5c3 0 0-4 3-4 15-14 24-32 31-50 0-7 4-13 5-20l-1-1c2-20 10-38 14-58 3-5 7 2 12 2 5-3 12 0 16-5h4c-1 7-5 13-5 20-2 6-1 13 2 19 6 12 21 8 29 17 3-1 7-1 10-4l7-4c2 5 4 11 10 13 8 0 11 11 20 10 5-1 9-4 10-9 15-10 30-21 41-36 3 3 2 8 3 11 2 6 9 9 15 11 3 0 5 2 8 3 1 5 5 0 8 4 3-2-2-3 0-5l4 2c2 5 6-2 10-1 2 0 3-3 5-2 0 1-2 1-2 3h3c9-5 21-12 23-23l-2 1"/>
    <path d="m91 240-1-2c-1-1-2 0-2 1-1 4-6 8-7 12 1 1-1 3-1 5l1-1c6-5 10-12 13-18-2 0-1 3-3 3M317 84h-1v2l1-2m164-38c-2 2 4 5 0 7l3 3c1 6 2 11 5 16 3-2 9 0 12-3 5 4 8-3 13-3 3-4 5-9 9-13l1 2 4-8c1-2-1-6 2-8-1-3 0-8-3-10 2-4-5-5-3-9-4-7-9-11-9-19-4 4-6-1-10-1-7 15-13 30-25 43-1 1-3 1-2 2s2-1 3 1M179 82c3-7 5-15 5-24l-2-4c-5 1 2 4 0 7l-3 21m-49 66v-1l-2-1c-1 2 1 2 2 2"/>
  </g>
</svg>
